<mxfile host="app.diagrams.net" modified="2022-02-22T09:58:14.925Z" agent="5.0 (Macintosh; Intel Mac OS X 10_15_7) AppleWebKit/537.36 (KHTML, like Gecko) Chrome/98.0.4758.102 Safari/537.36" etag="kqfUhK9QBq5olmfGmmab" version="16.6.1" type="github">
  <diagram id="IemuaXq5Jafa3FOG4-sM" name="Page-1">
    <mxGraphModel dx="2598" dy="756" grid="1" gridSize="10" guides="1" tooltips="1" connect="1" arrows="1" fold="1" page="1" pageScale="1" pageWidth="1300" pageHeight="700" math="0" shadow="0">
      <root>
        <mxCell id="0" />
        <mxCell id="1" parent="0" />
        <mxCell id="EdF79B31uzOkdk3bBI2Z-1" value="front" style="swimlane;" parent="1" vertex="1">
          <mxGeometry x="-1075" y="40" width="205" height="620" as="geometry" />
        </mxCell>
        <mxCell id="EdF79B31uzOkdk3bBI2Z-2" value="user info page" style="rounded=0;whiteSpace=wrap;html=1;" parent="EdF79B31uzOkdk3bBI2Z-1" vertex="1">
          <mxGeometry x="40" y="80" width="120" height="60" as="geometry" />
        </mxCell>
        <mxCell id="EdF79B31uzOkdk3bBI2Z-3" value="auth failed&lt;br&gt;Login page" style="rounded=0;whiteSpace=wrap;html=1;" parent="EdF79B31uzOkdk3bBI2Z-1" vertex="1">
          <mxGeometry x="40" y="230" width="120" height="60" as="geometry" />
        </mxCell>
        <mxCell id="EdF79B31uzOkdk3bBI2Z-4" value="new user info page" style="rounded=0;whiteSpace=wrap;html=1;" parent="EdF79B31uzOkdk3bBI2Z-1" vertex="1">
          <mxGeometry x="42.5" y="520" width="120" height="60" as="geometry" />
        </mxCell>
        <mxCell id="EdF79B31uzOkdk3bBI2Z-5" value="http_proxy" style="swimlane;" parent="1" vertex="1">
          <mxGeometry x="-870" y="40" width="205" height="620" as="geometry" />
        </mxCell>
        <mxCell id="EdF79B31uzOkdk3bBI2Z-6" style="edgeStyle=orthogonalEdgeStyle;rounded=0;orthogonalLoop=1;jettySize=auto;html=1;exitX=0.5;exitY=1;exitDx=0;exitDy=0;" parent="EdF79B31uzOkdk3bBI2Z-5" source="EdF79B31uzOkdk3bBI2Z-7" target="EdF79B31uzOkdk3bBI2Z-8" edge="1">
          <mxGeometry relative="1" as="geometry" />
        </mxCell>
        <mxCell id="EdF79B31uzOkdk3bBI2Z-7" value="/upload_image" style="rounded=0;whiteSpace=wrap;html=1;" parent="EdF79B31uzOkdk3bBI2Z-5" vertex="1">
          <mxGeometry x="50" y="80" width="120" height="60" as="geometry" />
        </mxCell>
        <mxCell id="EdF79B31uzOkdk3bBI2Z-8" value="valid token?" style="rhombus;whiteSpace=wrap;html=1;" parent="EdF79B31uzOkdk3bBI2Z-5" vertex="1">
          <mxGeometry x="53.5" y="160" width="113" height="80" as="geometry" />
        </mxCell>
        <mxCell id="EdF79B31uzOkdk3bBI2Z-9" value="tcp server" style="swimlane;" parent="1" vertex="1">
          <mxGeometry x="-665" y="40" width="205" height="620" as="geometry" />
        </mxCell>
        <mxCell id="EdF79B31uzOkdk3bBI2Z-27" style="edgeStyle=orthogonalEdgeStyle;rounded=0;orthogonalLoop=1;jettySize=auto;html=1;exitX=0.5;exitY=1;exitDx=0;exitDy=0;" parent="EdF79B31uzOkdk3bBI2Z-9" source="EdF79B31uzOkdk3bBI2Z-10" target="EdF79B31uzOkdk3bBI2Z-26" edge="1">
          <mxGeometry relative="1" as="geometry" />
        </mxCell>
        <mxCell id="EdF79B31uzOkdk3bBI2Z-10" value="upload image&amp;nbsp;&lt;br&gt;handler" style="rounded=0;whiteSpace=wrap;html=1;" parent="EdF79B31uzOkdk3bBI2Z-9" vertex="1">
          <mxGeometry x="41.25000000000003" y="280" width="122.5" height="60" as="geometry" />
        </mxCell>
        <mxCell id="EdF79B31uzOkdk3bBI2Z-25" value="" style="shadow=0;dashed=0;html=1;strokeColor=none;fillColor=#4495D1;labelPosition=center;verticalLabelPosition=bottom;verticalAlign=top;align=center;outlineConnect=0;shape=mxgraph.veeam.2d.file_system_browser;" parent="EdF79B31uzOkdk3bBI2Z-9" vertex="1">
          <mxGeometry x="60" y="428" width="85" height="70" as="geometry" />
        </mxCell>
        <mxCell id="EdF79B31uzOkdk3bBI2Z-26" value="" style="sketch=0;outlineConnect=0;fontColor=#232F3E;gradientColor=none;fillColor=#D45B07;strokeColor=none;dashed=0;verticalLabelPosition=bottom;verticalAlign=top;align=center;html=1;fontSize=12;fontStyle=0;aspect=fixed;pointerEvents=1;shape=mxgraph.aws4.container_registry_image;" parent="EdF79B31uzOkdk3bBI2Z-9" vertex="1">
          <mxGeometry x="79" y="360" width="48" height="48" as="geometry" />
        </mxCell>
        <mxCell id="EdF79B31uzOkdk3bBI2Z-29" value="File System" style="text;html=1;strokeColor=none;fillColor=none;align=center;verticalAlign=middle;whiteSpace=wrap;rounded=0;" parent="EdF79B31uzOkdk3bBI2Z-9" vertex="1">
          <mxGeometry x="56" y="493" width="87" height="32" as="geometry" />
        </mxCell>
        <mxCell id="EdF79B31uzOkdk3bBI2Z-11" value="redis" style="swimlane;" parent="1" vertex="1">
          <mxGeometry x="-460" y="40" width="205" height="620" as="geometry" />
        </mxCell>
        <mxCell id="EdF79B31uzOkdk3bBI2Z-12" value="get token" style="rounded=0;whiteSpace=wrap;html=1;" parent="EdF79B31uzOkdk3bBI2Z-11" vertex="1">
          <mxGeometry x="42.50000000000003" y="80" width="120" height="60" as="geometry" />
        </mxCell>
        <mxCell id="drmFzOU5LaRJ13Wszg-y-1" value="delete user info" style="rounded=0;whiteSpace=wrap;html=1;" parent="EdF79B31uzOkdk3bBI2Z-11" vertex="1">
          <mxGeometry x="42.5" y="520" width="122.5" height="60" as="geometry" />
        </mxCell>
        <mxCell id="EdF79B31uzOkdk3bBI2Z-13" value="mysql" style="swimlane;" parent="1" vertex="1">
          <mxGeometry x="-255" y="40" width="205" height="620" as="geometry" />
        </mxCell>
        <mxCell id="EdF79B31uzOkdk3bBI2Z-14" value="update user &lt;br&gt;image name" style="rounded=0;whiteSpace=wrap;html=1;" parent="EdF79B31uzOkdk3bBI2Z-13" vertex="1">
          <mxGeometry x="41.25" y="280" width="122.5" height="60" as="geometry" />
        </mxCell>
        <mxCell id="EdF79B31uzOkdk3bBI2Z-15" style="edgeStyle=orthogonalEdgeStyle;rounded=0;orthogonalLoop=1;jettySize=auto;html=1;exitX=1;exitY=0.5;exitDx=0;exitDy=0;" parent="1" source="EdF79B31uzOkdk3bBI2Z-2" target="EdF79B31uzOkdk3bBI2Z-7" edge="1">
          <mxGeometry relative="1" as="geometry" />
        </mxCell>
        <mxCell id="EdF79B31uzOkdk3bBI2Z-16" value="image+ token" style="edgeLabel;html=1;align=center;verticalAlign=middle;resizable=0;points=[];" parent="EdF79B31uzOkdk3bBI2Z-15" vertex="1" connectable="0">
          <mxGeometry x="-0.4057" y="-1" relative="1" as="geometry">
            <mxPoint x="19" y="-1" as="offset" />
          </mxGeometry>
        </mxCell>
        <mxCell id="EdF79B31uzOkdk3bBI2Z-19" style="edgeStyle=orthogonalEdgeStyle;rounded=0;orthogonalLoop=1;jettySize=auto;html=1;exitX=1;exitY=0.5;exitDx=0;exitDy=0;entryX=0;entryY=0.5;entryDx=0;entryDy=0;" parent="1" source="EdF79B31uzOkdk3bBI2Z-10" target="EdF79B31uzOkdk3bBI2Z-14" edge="1">
          <mxGeometry relative="1" as="geometry">
            <mxPoint x="-287.5" y="460" as="sourcePoint" />
          </mxGeometry>
        </mxCell>
        <mxCell id="EdF79B31uzOkdk3bBI2Z-20" style="edgeStyle=orthogonalEdgeStyle;rounded=0;orthogonalLoop=1;jettySize=auto;html=1;exitX=0.5;exitY=1;exitDx=0;exitDy=0;entryX=1;entryY=0.5;entryDx=0;entryDy=0;" parent="1" source="EdF79B31uzOkdk3bBI2Z-8" target="EdF79B31uzOkdk3bBI2Z-3" edge="1">
          <mxGeometry relative="1" as="geometry" />
        </mxCell>
        <mxCell id="EdF79B31uzOkdk3bBI2Z-21" value="NO" style="edgeLabel;html=1;align=center;verticalAlign=middle;resizable=0;points=[];" parent="EdF79B31uzOkdk3bBI2Z-20" vertex="1" connectable="0">
          <mxGeometry x="-0.4629" y="1" relative="1" as="geometry">
            <mxPoint as="offset" />
          </mxGeometry>
        </mxCell>
        <mxCell id="EdF79B31uzOkdk3bBI2Z-22" style="edgeStyle=orthogonalEdgeStyle;rounded=0;orthogonalLoop=1;jettySize=auto;html=1;exitX=1;exitY=0.5;exitDx=0;exitDy=0;entryX=0;entryY=0.5;entryDx=0;entryDy=0;startArrow=classic;startFill=1;" parent="1" source="EdF79B31uzOkdk3bBI2Z-7" target="EdF79B31uzOkdk3bBI2Z-12" edge="1">
          <mxGeometry relative="1" as="geometry" />
        </mxCell>
        <mxCell id="EdF79B31uzOkdk3bBI2Z-23" style="edgeStyle=orthogonalEdgeStyle;rounded=0;orthogonalLoop=1;jettySize=auto;html=1;exitX=1;exitY=0.5;exitDx=0;exitDy=0;entryX=0.5;entryY=0;entryDx=0;entryDy=0;startArrow=none;startFill=0;" parent="1" source="EdF79B31uzOkdk3bBI2Z-8" target="EdF79B31uzOkdk3bBI2Z-10" edge="1">
          <mxGeometry relative="1" as="geometry" />
        </mxCell>
        <mxCell id="EdF79B31uzOkdk3bBI2Z-24" value="yes" style="edgeLabel;html=1;align=center;verticalAlign=middle;resizable=0;points=[];" parent="EdF79B31uzOkdk3bBI2Z-23" vertex="1" connectable="0">
          <mxGeometry x="-0.181" relative="1" as="geometry">
            <mxPoint x="1" y="1" as="offset" />
          </mxGeometry>
        </mxCell>
        <mxCell id="EdF79B31uzOkdk3bBI2Z-28" style="edgeStyle=orthogonalEdgeStyle;rounded=0;orthogonalLoop=1;jettySize=auto;html=1;exitX=0.5;exitY=1;exitDx=0;exitDy=0;" parent="1" edge="1">
          <mxGeometry relative="1" as="geometry">
            <mxPoint x="-562.5" y="448" as="sourcePoint" />
            <mxPoint x="-561.9696969696968" y="468" as="targetPoint" />
          </mxGeometry>
        </mxCell>
        <mxCell id="drmFzOU5LaRJ13Wszg-y-2" style="edgeStyle=orthogonalEdgeStyle;rounded=0;orthogonalLoop=1;jettySize=auto;html=1;exitX=0.5;exitY=1;exitDx=0;exitDy=0;entryX=1;entryY=0.5;entryDx=0;entryDy=0;" parent="1" source="EdF79B31uzOkdk3bBI2Z-14" target="drmFzOU5LaRJ13Wszg-y-1" edge="1">
          <mxGeometry relative="1" as="geometry" />
        </mxCell>
        <mxCell id="drmFzOU5LaRJ13Wszg-y-3" style="edgeStyle=orthogonalEdgeStyle;rounded=0;orthogonalLoop=1;jettySize=auto;html=1;exitX=0;exitY=0.5;exitDx=0;exitDy=0;entryX=1;entryY=0.5;entryDx=0;entryDy=0;" parent="1" source="drmFzOU5LaRJ13Wszg-y-1" target="EdF79B31uzOkdk3bBI2Z-4" edge="1">
          <mxGeometry relative="1" as="geometry" />
        </mxCell>
      </root>
    </mxGraphModel>
  </diagram>
</mxfile>
